<svg version="1.1" id="Layer_1" xmlns="http://www.w3.org/2000/svg" xmlns:xlink="http://www.w3.org/1999/xlink" x="0px" y="0px"
	 width="100%" viewBox="0 0 669 742" enable-background="new 0 0 669 742" xml:space="preserve">
<path fill="#FFFFFF" opacity="1.000000" stroke="none" 
	d="
M363.000000,743.000000 
	C242.000000,743.000000 121.500000,743.000000 1.000000,743.000000 
	C1.000000,495.666656 1.000000,248.333328 1.000000,1.000000 
	C224.000000,1.000000 447.000000,1.000000 670.000000,1.000000 
	C670.000000,248.333328 670.000000,495.666656 670.000000,743.000000 
	C567.833313,743.000000 465.666656,743.000000 363.000000,743.000000 
M347.067932,667.036926 
	C348.859680,666.708862 350.640442,666.293945 352.444885,666.065918 
	C375.768585,663.118103 398.271820,656.949646 420.297668,648.877625 
	C425.722015,646.889771 431.187073,645.013062 436.744995,644.006104 
	C436.744995,672.928223 436.744995,701.850403 436.744995,731.103149 
	C439.008087,731.103149 440.638062,731.161499 442.262848,731.094177 
	C460.984314,730.318970 479.328796,727.124146 497.287018,721.914612 
	C568.082214,701.377258 617.811096,657.799622 642.654541,587.633667 
	C657.154724,546.680176 660.457397,504.195648 658.345154,461.084381 
	C656.427002,421.933777 643.701843,386.654419 619.118103,356.266296 
	C608.727173,343.421936 595.832092,332.603363 584.060120,320.106537 
	C578.182373,303.001892 569.536072,287.280029 559.704712,272.209381 
	C542.651428,246.068039 521.362305,223.828445 496.930847,204.114395 
	C497.326996,203.385391 497.712311,202.650253 498.120911,201.928299 
	C508.693054,183.249161 504.010529,159.903946 487.197906,147.481155 
	C469.595245,134.474655 445.973633,136.504150 431.149261,152.512482 
	C428.141815,155.760147 425.843353,159.664368 422.410248,163.161530 
	C419.563599,162.247452 416.700195,161.382278 413.872955,160.411621 
	C389.460358,152.030045 364.580444,145.752472 338.732574,144.000671 
	C334.649658,143.723938 333.975037,141.697067 333.982971,138.143188 
	C334.072388,98.155312 334.039490,58.167160 334.039429,18.179087 
	C334.039429,16.256470 334.039459,14.333852 334.039459,11.314858 
	C323.442078,12.240618 313.724884,12.960464 304.036652,13.960865 
	C278.520325,16.595665 253.630219,22.317909 229.379654,30.499287 
	C193.992203,42.437912 161.120911,59.207970 131.668762,82.495003 
	C99.623726,107.832138 74.009529,138.429642 54.816288,174.436600 
	C39.944454,202.336502 29.605606,231.886383 22.568478,262.677002 
	C15.296504,294.495178 11.869815,326.764221 11.129538,359.313568 
	C10.800929,373.762115 11.878668,388.237061 11.890632,402.700378 
	C11.904867,419.911499 14.425889,436.805664 18.408880,453.421173 
	C31.111765,506.412689 57.574635,551.461182 97.221924,588.902405 
	C124.051620,614.239319 154.587753,633.641479 188.771759,647.286682 
	C217.618179,658.801392 247.509872,666.099304 278.709229,668.990967 
	C278.725616,670.319275 278.708130,671.648987 278.763428,672.975708 
	C279.834442,698.666077 308.448181,714.349060 330.454468,701.108276 
	C343.211060,693.432922 347.654572,681.527161 347.067932,667.036926 
M361.134949,81.282654 
	C367.233002,90.606407 376.161743,95.298233 386.983887,95.867744 
	C400.725189,96.590858 413.036743,88.566467 418.365112,76.258278 
	C423.995819,63.251747 421.174011,49.480598 410.826233,39.260952 
	C400.031311,28.599642 380.783051,26.075834 366.130219,38.819126 
	C355.037170,48.466564 352.253906,67.694450 361.134949,81.282654 
M377.861755,728.817139 
	C388.032410,733.743958 398.109558,731.822937 404.292328,723.778625 
	C410.086700,716.239624 409.983765,705.532532 403.794342,698.426880 
	C398.455536,692.297791 391.707886,689.793823 383.641144,691.729065 
	C375.393097,693.707703 370.167908,699.040833 368.471436,707.194275 
	C366.637024,716.010498 369.828552,723.192383 377.861755,728.817139 
M462.245117,77.401283 
	C461.202057,77.921387 460.116302,78.370903 459.122559,78.972488 
	C448.874939,85.176270 446.462158,98.162018 453.631653,108.412170 
	C459.877258,117.341339 473.786194,119.075005 482.452240,112.004402 
	C490.150116,105.723763 492.207123,95.247025 487.501007,86.290016 
	C483.135529,77.981323 473.010040,74.191330 462.245117,77.401283 
z"/>
<path fill="#D0C1D1" opacity="1.000000" stroke="none" 
	d="
M436.633423,643.085205 
	C431.187073,645.013062 425.722015,646.889771 420.297668,648.877625 
	C398.271820,656.949646 375.768585,663.118103 352.444885,666.065918 
	C350.640442,666.293945 348.859680,666.708862 346.541443,666.686157 
	C341.309601,648.513367 327.540863,637.550842 310.574646,638.118286 
	C294.168915,638.666992 281.765137,650.293152 278.595734,668.092468 
	C247.509872,666.099304 217.618179,658.801392 188.771759,647.286682 
	C154.587753,633.641479 124.051620,614.239319 97.221924,588.902405 
	C57.574635,551.461182 31.111765,506.412689 18.408880,453.421173 
	C14.425889,436.805664 11.904867,419.911499 11.890632,402.700378 
	C11.878668,388.237061 10.800929,373.762115 11.129538,359.313568 
	C11.869815,326.764221 15.296504,294.495178 22.568478,262.677002 
	C29.605606,231.886383 39.944454,202.336502 54.816288,174.436600 
	C74.009529,138.429642 99.623726,107.832138 131.668762,82.495003 
	C161.120911,59.207970 193.992203,42.437912 229.379654,30.499287 
	C253.630219,22.317909 278.520325,16.595665 304.036652,13.960865 
	C313.724884,12.960464 323.442078,12.240618 334.039459,11.314858 
	C334.039459,14.333852 334.039429,16.256470 334.039429,18.179087 
	C334.039490,58.167160 334.072388,98.155312 333.982971,138.143188 
	C333.975037,141.697067 334.649658,143.723938 338.732574,144.000671 
	C364.580444,145.752472 389.460358,152.030045 413.872955,160.411621 
	C416.700195,161.382278 419.563599,162.247452 422.786346,163.595886 
	C422.569183,166.098831 421.933990,168.156464 421.389008,170.237717 
	C414.268250,197.431992 435.185913,223.910965 463.289612,222.824402 
	C477.162048,222.288071 488.325287,215.921829 496.689209,204.779343 
	C521.362305,223.828445 542.651428,246.068039 559.704712,272.209381 
	C569.536072,287.280029 578.182373,303.001892 583.737915,320.410095 
	C575.156982,315.410004 567.202576,309.542267 558.589111,304.896393 
	C511.367523,279.426208 461.181183,272.950439 409.058716,284.234406 
	C353.212769,296.324493 307.775146,325.024445 278.124237,374.717438 
	C246.631210,427.497650 245.085709,482.473297 272.999054,537.223267 
	C294.637909,579.666321 329.693665,607.979126 373.401764,625.933655 
	C392.455444,633.760620 412.357330,638.299744 432.785065,640.719971 
	C434.142212,640.880798 435.354034,642.268250 436.633423,643.085205 
M101.198883,437.489136 
	C129.023941,443.665436 156.630859,424.613495 159.824646,395.472626 
	C162.696548,369.268799 144.450607,346.303436 117.955261,342.244110 
	C93.478531,338.494080 69.033684,356.114655 64.197716,380.994171 
	C59.253185,406.432220 75.058350,430.987335 101.198883,437.489136 
M171.355042,256.242584 
	C170.120132,254.893082 168.968719,253.454346 167.637100,252.208176 
	C156.642410,241.918732 139.855942,241.192657 127.799316,250.443649 
	C116.010468,259.489166 112.489296,275.773682 119.456558,289.026764 
	C126.484253,302.394806 142.247955,308.750824 156.533432,303.881714 
	C175.524155,297.408813 183.925034,274.521393 171.355042,256.242584 
M199.556412,318.086884 
	C198.558182,319.415375 197.461746,320.681854 196.577209,322.082153 
	C189.502441,333.282135 192.791550,349.383789 203.510590,356.201599 
	C216.067154,364.188202 231.280655,361.266541 239.064835,349.373718 
	C245.850143,339.006989 243.972260,324.268738 234.893600,316.636414 
	C224.127213,307.585205 210.806152,307.943665 199.556412,318.086884 
z"/>
<path fill="#486079" opacity="1.000000" stroke="none" 
	d="
M436.689209,643.545654 
	C435.354034,642.268250 434.142212,640.880798 432.785065,640.719971 
	C412.357330,638.299744 392.455444,633.760620 373.401764,625.933655 
	C329.693665,607.979126 294.637909,579.666321 272.999054,537.223267 
	C245.085709,482.473297 246.631210,427.497650 278.124237,374.717438 
	C307.775146,325.024445 353.212769,296.324493 409.058716,284.234406 
	C461.181183,272.950439 511.367523,279.426208 558.589111,304.896393 
	C567.202576,309.542267 575.156982,315.410004 583.745422,320.788849 
	C595.832092,332.603363 608.727173,343.421936 619.118103,356.266296 
	C643.701843,386.654419 656.427002,421.933777 658.345154,461.084381 
	C660.457397,504.195648 657.154724,546.680176 642.654541,587.633667 
	C617.811096,657.799622 568.082214,701.377258 497.287018,721.914612 
	C479.328796,727.124146 460.984314,730.318970 442.262848,731.094177 
	C440.638062,731.161499 439.008087,731.103149 436.744995,731.103149 
	C436.744995,701.850403 436.744995,672.928223 436.689209,643.545654 
M416.008636,425.341461 
	C421.903015,395.201752 400.008362,367.444427 369.977417,366.984558 
	C339.026459,366.510620 315.936462,393.074860 321.231018,423.851929 
	C325.424896,448.230896 346.474487,464.544403 370.309357,463.524353 
	C393.470886,462.533112 409.365814,448.820099 416.008636,425.341461 
M437.435211,516.242065 
	C450.933838,522.721924 465.675293,518.217834 472.068634,505.660217 
	C478.232391,493.553589 473.658447,478.569366 461.807281,472.043854 
	C449.936218,465.507446 434.720154,469.646759 427.890381,481.270569 
	C420.625458,493.635071 424.310486,508.019592 437.435211,516.242065 
M469.227386,347.265564 
	C467.084900,347.491028 464.916260,347.575256 462.804321,347.965881 
	C452.339264,349.901581 443.754028,359.267517 442.915039,369.555817 
	C441.928925,381.648071 447.955109,391.919861 458.407013,395.962250 
	C469.193146,400.133911 481.246429,396.777588 487.976562,387.915131 
	C498.955475,373.457794 491.863434,350.186676 469.227386,347.265564 
z"/>
<path fill="#ED6A6E" opacity="1.000000" stroke="none" 
	d="
M496.810028,204.446869 
	C488.325287,215.921829 477.162048,222.288071 463.289612,222.824402 
	C435.185913,223.910965 414.268250,197.431992 421.389008,170.237717 
	C421.933990,168.156464 422.569183,166.098831 423.190247,163.648071 
	C425.843353,159.664368 428.141815,155.760147 431.149261,152.512482 
	C445.973633,136.504150 469.595245,134.474655 487.197906,147.481155 
	C504.010529,159.903946 508.693054,183.249161 498.120911,201.928299 
	C497.712311,202.650253 497.326996,203.385391 496.810028,204.446869 
z"/>
<path fill="#49617A" opacity="1.000000" stroke="none" 
	d="
M278.652466,668.541748 
	C281.765137,650.293152 294.168915,638.666992 310.574646,638.118286 
	C327.540863,637.550842 341.309601,648.513367 346.136200,666.712646 
	C347.654572,681.527161 343.211060,693.432922 330.454468,701.108276 
	C308.448181,714.349060 279.834442,698.666077 278.763428,672.975708 
	C278.708130,671.648987 278.725616,670.319275 278.652466,668.541748 
z"/>
<path fill="#D1C2D2" opacity="1.000000" stroke="none" 
	d="
M360.964600,80.960655 
	C352.253906,67.694450 355.037170,48.466564 366.130219,38.819126 
	C380.783051,26.075834 400.031311,28.599642 410.826233,39.260952 
	C421.174011,49.480598 423.995819,63.251747 418.365112,76.258278 
	C413.036743,88.566467 400.725189,96.590858 386.983887,95.867744 
	C376.161743,95.298233 367.233002,90.606407 360.964600,80.960655 
z"/>
<path fill="#4B627B" opacity="1.000000" stroke="none" 
	d="
M377.553375,728.611938 
	C369.828552,723.192383 366.637024,716.010498 368.471436,707.194275 
	C370.167908,699.040833 375.393097,693.707703 383.641144,691.729065 
	C391.707886,689.793823 398.455536,692.297791 403.794342,698.426880 
	C409.983765,705.532532 410.086700,716.239624 404.292328,723.778625 
	C398.109558,731.822937 388.032410,733.743958 377.553375,728.611938 
z"/>
<path fill="#D1C2D2" opacity="1.000000" stroke="none" 
	d="
M462.614990,77.257446 
	C473.010040,74.191330 483.135529,77.981323 487.501007,86.290016 
	C492.207123,95.247025 490.150116,105.723763 482.452240,112.004402 
	C473.786194,119.075005 459.877258,117.341339 453.631653,108.412170 
	C446.462158,98.162018 448.874939,85.176270 459.122559,78.972488 
	C460.116302,78.370903 461.202057,77.921387 462.614990,77.257446 
z"/>
<path fill="#496179" opacity="1.000000" stroke="none" 
	d="
M100.799606,437.364075 
	C75.058350,430.987335 59.253185,406.432220 64.197716,380.994171 
	C69.033684,356.114655 93.478531,338.494080 117.955261,342.244110 
	C144.450607,346.303436 162.696548,369.268799 159.824646,395.472626 
	C156.630859,424.613495 129.023941,443.665436 100.799606,437.364075 
z"/>
<path fill="#49617A" opacity="1.000000" stroke="none" 
	d="
M171.571976,256.532867 
	C183.925034,274.521393 175.524155,297.408813 156.533432,303.881714 
	C142.247955,308.750824 126.484253,302.394806 119.456558,289.026764 
	C112.489296,275.773682 116.010468,259.489166 127.799316,250.443649 
	C139.855942,241.192657 156.642410,241.918732 167.637100,252.208176 
	C168.968719,253.454346 170.120132,254.893082 171.571976,256.532867 
z"/>
<path fill="#ED6A6E" opacity="1.000000" stroke="none" 
	d="
M199.811554,317.830231 
	C210.806152,307.943665 224.127213,307.585205 234.893600,316.636414 
	C243.972260,324.268738 245.850143,339.006989 239.064835,349.373718 
	C231.280655,361.266541 216.067154,364.188202 203.510590,356.201599 
	C192.791550,349.383789 189.502441,333.282135 196.577209,322.082153 
	C197.461746,320.681854 198.558182,319.415375 199.811554,317.830231 
z"/>
<path fill="#CFC0D1" opacity="1.000000" stroke="none" 
	d="
M415.948608,425.759277 
	C409.365814,448.820099 393.470886,462.533112 370.309357,463.524353 
	C346.474487,464.544403 325.424896,448.230896 321.231018,423.851929 
	C315.936462,393.074860 339.026459,366.510620 369.977417,366.984558 
	C400.008362,367.444427 421.903015,395.201752 415.948608,425.759277 
z"/>
<path fill="#EB696D" opacity="1.000000" stroke="none" 
	d="
M437.099701,516.075745 
	C424.310486,508.019592 420.625458,493.635071 427.890381,481.270569 
	C434.720154,469.646759 449.936218,465.507446 461.807281,472.043854 
	C473.658447,478.569366 478.232391,493.553589 472.068634,505.660217 
	C465.675293,518.217834 450.933838,522.721924 437.099701,516.075745 
z"/>
<path fill="#CFC0D0" opacity="1.000000" stroke="none" 
	d="
M469.640808,347.313782 
	C491.863434,350.186676 498.955475,373.457794 487.976562,387.915131 
	C481.246429,396.777588 469.193146,400.133911 458.407013,395.962250 
	C447.955109,391.919861 441.928925,381.648071 442.915039,369.555817 
	C443.754028,359.267517 452.339264,349.901581 462.804321,347.965881 
	C464.916260,347.575256 467.084900,347.491028 469.640808,347.313782 
z"/>
</svg>